<svg width="108" height="48" viewBox="0 0 108 48" fill="none" xmlns="http://www.w3.org/2000/svg">
<path d="M52.9439 27.0116H58.8239L55.9799 19.5596L52.9439 27.0116Z" fill="white"/>
<path d="M95.9459 36.8456C91.0259 36.8456 86.1059 36.8456 81.1799 36.8456C79.0619 36.8456 78.8579 36.6656 78.4079 34.6016C77.5439 30.6356 76.6379 26.6816 75.8159 22.7096C75.6239 21.7856 75.3179 21.4796 74.3699 21.4796C74.1419 21.4796 73.9259 21.4796 73.5299 21.4796V18.4076C74.5619 18.4076 75.4799 18.4376 76.5779 18.4376C78.6899 18.4376 79.4399 18.0776 80.6639 16.0616C82.2299 13.4936 85.3979 7.74563 85.5959 7.45163C86.4959 7.96763 87.3539 8.45363 88.2899 8.98763C86.5259 12.0896 84.7919 15.1376 82.9799 18.3236H97.7699C95.9879 15.1856 94.2539 12.1376 92.4659 8.98763C93.3719 8.47163 94.2479 7.97363 95.2019 7.43363C96.0719 8.95163 99.9479 15.6776 101.028 17.6336C101.346 18.2036 101.712 18.4496 102.378 18.4256C102.438 18.4256 102.498 18.4256 102.558 18.4256L105.87 4.97363L7.03788 6.35363L2.12988 43.0316L97.0199 40.9016L98.0159 36.8516C97.3259 36.8516 96.6359 36.8516 95.9399 36.8516L95.9459 36.8456ZM17.5199 36.2156H11.0159V12.2576H17.5199V36.2216V36.2156ZM28.5899 36.2156L18.6839 12.8036L25.3319 11.7836L31.3559 26.7236L37.4579 11.7836L43.5599 12.8036L33.6239 36.2156H28.5839H28.5899ZM62.3759 36.2156L60.2939 30.9536H51.4559L49.3019 36.2156H43.1639L53.4659 12.2516H59.1299L69.2819 36.2156H62.3759Z" fill="white"/>
<path d="M84.6359 23.1596H82.5779C82.1305 23.1596 81.7679 23.5223 81.7679 23.9696V31.1876C81.7679 31.635 82.1305 31.9976 82.5779 31.9976H84.6359C85.0832 31.9976 85.4459 31.635 85.4459 31.1876V23.9696C85.4459 23.5223 85.0832 23.1596 84.6359 23.1596Z" fill="white"/>
<path d="M91.4399 23.1596H89.3819C88.9345 23.1596 88.5719 23.5223 88.5719 23.9696V31.1876C88.5719 31.635 88.9345 31.9976 89.3819 31.9976H91.4399C91.8872 31.9976 92.2499 31.635 92.2499 31.1876V23.9696C92.2499 23.5223 91.8872 23.1596 91.4399 23.1596Z" fill="white"/>
<path d="M98.1839 23.1596H96.1259C95.6785 23.1596 95.3159 23.5223 95.3159 23.9696V31.1876C95.3159 31.635 95.6785 31.9976 96.1259 31.9976H98.1839C98.6312 31.9976 98.9939 31.635 98.9939 31.1876V23.9696C98.9939 23.5223 98.6312 23.1596 98.1839 23.1596Z" fill="white"/>
</svg>
