<svg width="108" height="48" viewBox="0 0 108 48" fill="none" xmlns="http://www.w3.org/2000/svg">
<path d="M26.646 16.5771C29.13 16.5771 30.516 16.8712 31.98 17.7112V17.7051C34.104 18.9471 35.49 21.4731 35.49 24.0291C35.49 28.3011 32.826 30.9352 28.512 30.9352H27.888C27.45 30.9352 27.084 30.9352 26.682 30.8631C26.6376 30.8631 26.581 30.8571 26.5144 30.8499C26.4189 30.8396 26.3027 30.8272 26.172 30.8272V16.5771H26.646Z" fill="white"/>
<path fill-rule="evenodd" clip-rule="evenodd" d="M74.442 8.25508V36.4431H98.136L97.038 40.9011L2.10596 43.0371L7.01396 6.34708L105.9 4.95508L98.238 36.0591H97.896V10.3011H94.446V36.0591H89.946V18.6831H86.496V36.0591H82.002V28.7151H78.552V36.0591H74.664V8.25508H74.442ZM10.824 35.6571H17.328V11.6811H10.824V35.6571ZM27.198 35.9151C31.47 35.9151 34.836 35.2191 36.954 33.9051C40.206 31.9311 42.324 28.0611 42.324 24.0771C42.324 18.4851 39.36 14.1351 34.392 12.5271C32.346 11.8671 29.676 11.4291 27.522 11.4291H25.404C24.09 11.4651 22.668 11.5431 21.24 11.6871C20.9936 11.6871 20.6268 11.7272 20.167 11.7775C20.011 11.7946 19.8443 11.8128 19.668 11.8311V35.4771C22.554 35.7711 24.75 35.9151 27.198 35.9151ZM63.192 33.8691C65.202 32.1891 66.042 29.8851 66.042 26.0511V11.6811H59.538V25.7151C59.538 27.3231 59.316 28.4571 58.914 29.1531C58.218 30.2811 56.904 30.9411 55.296 30.9411C53.838 30.9411 52.704 30.5751 51.9 29.8791C50.952 29.0391 50.586 27.9051 50.586 25.7151V11.6811H44.082V25.7151C44.082 28.8231 44.52 30.9051 45.432 32.4051C47.04 34.9311 50.37 36.3171 54.936 36.3171C58.224 36.3171 61.44 35.3691 63.192 33.8691Z" fill="white"/>
</svg>
