<svg width="109" height="48" viewBox="0 0 109 48" fill="none" xmlns="http://www.w3.org/2000/svg">
<path d="M28.9643 16.8122C28.3043 16.8122 28.1243 16.8122 27.0263 16.8842V23.5022H30.2423C31.6703 23.5022 32.9483 21.8942 32.9483 20.1362C32.9483 18.0902 31.4123 16.8062 28.9643 16.8062V16.8122Z" fill="white"/>
<path d="M85.2743 37.0922C82.6523 37.0922 80.0243 37.0922 77.4023 37.0922C76.0643 37.0922 74.9963 36.6002 74.2703 35.4482C73.9463 34.9322 73.7903 34.3562 73.7903 33.7502C73.7903 29.4482 73.7903 25.1462 73.7903 20.8442C73.7903 20.7782 73.8023 20.7122 73.8143 20.6162C74.6003 20.8322 75.3683 21.0362 76.1363 21.2462C80.0063 22.3022 83.8763 23.3582 87.7523 24.4082C87.9983 24.4742 88.0703 24.5822 88.0643 24.8222C88.0523 25.5782 88.0583 26.3342 88.0643 27.0842C88.0643 27.8282 88.3883 28.1462 89.1383 28.1462C90.4223 28.1462 91.7063 28.1462 92.9903 28.1462C93.7223 28.1462 94.0343 27.8342 94.0403 27.0962C94.0463 26.3162 94.0463 25.5422 94.0403 24.7622C94.0403 24.5822 94.0763 24.4742 94.2743 24.4202C97.0163 23.6762 99.7583 22.9322 102.5 22.1822L102.842 20.8022C99.9203 21.6002 96.9983 22.3922 94.0463 23.1962C94.0463 22.8782 94.0463 22.5902 94.0463 22.3022C94.0343 21.6122 93.7103 21.2822 93.0323 21.2762C91.7003 21.2762 90.3743 21.2762 89.0423 21.2762C88.4243 21.2762 88.0883 21.6122 88.0703 22.2362C88.0643 22.5362 88.0703 22.8422 88.0703 23.1962C83.2883 21.8942 78.5543 20.6042 73.7963 19.3142C73.7963 18.0842 73.7963 16.8722 73.7963 15.6542C73.7963 15.2042 73.7963 14.7482 73.8563 14.3102C74.0723 12.7622 75.4283 11.5262 76.9823 11.5142C79.5623 11.4842 82.1423 11.5022 84.7223 11.5022C85.1783 11.5022 85.1603 11.5022 85.2083 11.0522C85.4483 8.8142 86.5943 7.24219 88.7003 6.41419C91.0703 5.4782 93.8843 6.1262 95.5463 7.9802C96.3383 8.8622 96.7643 9.92419 96.8723 11.0942C96.9083 11.4422 97.0223 11.5142 97.3463 11.5082C99.8123 11.4962 102.278 11.5442 104.744 11.4902C104.87 11.4902 104.996 11.4902 105.116 11.5082L106.73 4.9502L7.77826 6.3302L2.86426 43.0562L97.8743 40.9202L98.8163 37.0922C94.3043 37.0922 89.7863 37.0922 85.2743 37.0922ZM89.1203 22.9742C89.1203 22.4702 89.3303 22.2602 89.8403 22.2602C90.6383 22.2602 91.4363 22.2602 92.2343 22.2602C92.7503 22.2602 92.9663 22.4822 92.9663 23.0042C92.9663 23.5862 92.9663 24.1742 92.9663 24.7562C92.9663 25.3502 92.9663 25.9502 92.9663 26.5442C92.9663 27.0062 92.7503 27.2222 92.2823 27.2282C91.4603 27.2342 90.6383 27.2342 89.8223 27.2282C89.3423 27.2282 89.1263 26.9942 89.1263 26.5202C89.1263 25.3382 89.1263 24.1562 89.1263 22.9802L89.1203 22.9742ZM18.2123 36.1622H11.7023V12.1682H18.2123V36.1622ZM34.3403 36.1622L29.6963 27.9362H27.0263V36.1622H20.5163V12.2762C21.1763 12.2402 21.7223 12.1682 22.0523 12.1322C24.0983 11.9522 26.5523 11.8382 28.0163 11.8382C35.4383 11.8382 39.2783 14.5082 39.2783 19.6622C39.2783 22.4762 38.0003 24.4922 35.3663 25.8782L41.8403 36.1562H34.3403V36.1622ZM58.8803 36.1622H42.6443V12.1682H57.8963V17.1062H48.9743V21.4202H56.9843V26.1002H48.9743V31.1102H59.4683L58.8803 36.1562V36.1622Z" fill="white"/>
<path d="M90.8063 8.1002C89.0303 8.2022 87.3743 9.9002 87.5603 11.4722H94.5683C94.5143 9.6542 93.0143 7.9682 90.8063 8.1002Z" fill="white"/>
</svg>
