<svg width="108" height="48" viewBox="0 0 108 48" fill="none" xmlns="http://www.w3.org/2000/svg">
<path d="M94.4343 17.7121C94.4343 18.7861 95.3163 19.6681 96.3903 19.6681C97.4643 19.6681 98.3463 18.7861 98.3463 17.7121C98.3463 16.6381 97.4643 15.7561 96.3903 15.7561C95.3163 15.7561 94.4343 16.6381 94.4343 17.7121Z" fill="white"/>
<path d="M68.9883 41.2021V9.88205C68.9883 7.72205 70.7403 5.97005 72.9003 5.97005H84.6423C86.8023 5.97005 88.5543 7.72205 88.5543 9.88205V23.5801H90.5103C92.6703 23.5801 94.4223 25.3321 94.4223 27.4921V36.3001C94.4223 37.3741 95.3043 38.2561 96.3783 38.2561C96.9603 38.2561 97.4763 37.9981 97.8363 37.5961L98.3343 35.5741V22.1881C97.7343 22.4521 97.0743 22.5961 96.3783 22.5961C93.6783 22.5961 91.4883 20.4061 91.4883 17.7061C91.4883 15.6241 92.8023 13.8481 94.6383 13.1461L90.5103 9.01805L92.5863 6.94205L99.8763 14.2141L99.8463 14.2441C100.728 15.1321 101.274 16.3561 101.274 17.7061V23.6521L105.882 4.95605L7.02031 6.34805L2.1123 43.0381L83.9283 41.2021H68.9883ZM17.1903 35.9821H10.6863V12.0061H17.1903V35.9821ZM27.1263 36.6421C24.0963 36.6421 21.3543 35.8021 18.4323 34.0141L19.1283 28.2421C21.3963 30.2161 23.5143 31.2361 25.7043 31.4221C27.4563 31.5661 28.6983 30.6181 28.6983 29.0821C28.6983 28.0621 28.0743 27.4021 26.2143 26.4121C24.9723 25.7521 24.0603 25.2781 23.6223 25.0621C20.6283 23.4181 19.3443 21.4801 19.3443 18.5221C19.3443 16.1461 20.5503 14.0281 22.6323 12.7501C23.9823 11.9461 26.0283 11.3641 27.6723 11.3641C30.6303 11.3641 32.3883 11.8381 35.6043 13.5181L34.1823 18.4501C31.9503 16.9861 30.5643 16.4401 29.0283 16.4401C27.7503 16.4401 26.7243 17.2441 26.6523 18.3421C26.5803 19.4761 27.1263 20.0581 29.2803 21.1561C31.6203 22.3621 33.1143 23.2381 34.0683 24.0421C35.4183 25.2121 36.2583 27.1141 36.2583 29.0101C36.2583 33.5041 32.4963 36.6481 27.1263 36.6481V36.6421ZM49.3443 36.6421C42.1803 36.3121 37.3563 31.1221 37.3563 23.7781C37.3563 16.4341 42.8403 11.3521 49.9623 11.3521C53.2143 11.3521 55.6623 12.0841 58.2903 13.8721L54.9663 18.9121C53.3223 17.7781 52.0443 17.3401 50.3283 17.3401C46.8183 17.3401 44.2983 20.0461 44.2983 23.8801C44.2983 27.7141 47.0403 30.6421 50.5443 30.6421C52.5543 30.6421 54.0183 30.1681 55.6263 28.9621L58.3683 33.9661C55.5543 35.9401 52.6323 36.7801 49.3443 36.6361V36.6421Z" fill="white"/>
<path d="M84.6483 9.88205H72.9063V19.6681H84.6483V9.88205Z" fill="white"/>
<path d="M88.5603 26.5201V41.0941L94.8663 40.9501C92.9103 40.3081 91.5003 38.4721 91.5003 36.3001V26.5141H88.5663L88.5603 26.5201Z" fill="white"/>
</svg>
