<svg width="109" height="48" viewBox="0 0 109 48" fill="none" xmlns="http://www.w3.org/2000/svg">
<path d="M30.5502 16.8123C29.8242 16.8123 29.6202 16.8123 28.4082 16.8903V24.2043H31.9662C33.5442 24.2043 34.9542 22.4283 34.9542 20.4843C34.9542 18.2223 33.2562 16.8063 30.5502 16.8063V16.8123Z" fill="white"/>
<path d="M54.7602 17.2143C54.3162 17.2143 53.5482 17.2563 52.8582 17.2923V24.7263C53.5482 24.7683 54.1902 24.7683 54.6342 24.7683C57.6222 24.7683 59.4042 23.3943 59.4042 21.0483C59.4042 18.7023 57.6642 17.2083 54.7542 17.2083L54.7602 17.2143Z" fill="white"/>
<path d="M87.0462 26.8683C87.0462 26.5023 86.9682 26.3583 86.7642 26.3583C86.5602 26.3583 86.4762 26.4963 86.4762 26.8623C86.4762 31.6323 86.4762 36.3963 86.4762 41.1663C86.4762 41.4003 86.4402 41.6163 86.3802 41.8203L87.1242 41.8023C87.0822 41.6523 87.0522 41.4963 87.0522 41.3343C87.0342 40.6083 87.0522 39.8763 87.0522 39.1503V26.8683H87.0462Z" fill="white"/>
<path d="M101.02 26.1003C100.516 25.9803 100.15 25.5183 100.15 24.9243C100.15 22.3023 100.15 19.6863 100.15 17.0643C100.15 16.9923 100.15 16.9203 100.15 16.8483C100.15 16.6923 100.096 16.5603 99.9162 16.5483C99.7182 16.5363 99.6582 16.6743 99.6522 16.8423C99.6522 16.9143 99.6522 16.9863 99.6522 17.0523C99.6522 21.9183 99.6522 26.7843 99.6522 31.6563L101.722 23.2443L101.02 26.0883V26.1003Z" fill="white"/>
<path d="M97.3962 40.8303C97.3962 40.8303 97.3602 40.8183 97.3362 40.8063C96.7542 40.5483 96.4302 40.0863 96.3642 39.4503C96.3522 39.3243 96.3522 39.2043 96.3522 39.0783C96.3522 34.9143 96.3522 30.7503 96.3522 26.5863C96.3522 26.4783 96.3762 26.3583 96.3342 26.2743C96.2922 26.1843 96.1842 26.0763 96.1002 26.0763C96.0162 26.0763 95.9142 26.1843 95.8662 26.2743C95.8242 26.3523 95.8482 26.4663 95.8482 26.5623C95.8482 30.7803 95.8482 34.9983 95.8482 39.2163C95.8482 40.1043 95.3142 40.7823 94.5102 40.9263C93.4602 41.1183 92.5542 40.3503 92.5482 39.2583C92.5482 37.6623 92.5482 36.0603 92.5482 34.4643V27.3243C92.7222 27.3063 92.8722 27.3003 93.0222 27.2703C94.0362 27.0663 94.7562 26.2143 94.7622 25.1643C94.7742 21.5163 94.7742 17.8623 94.7562 14.2143C94.7562 13.7583 94.6002 13.3023 94.5102 12.8223C94.5522 12.8223 94.6362 12.8103 94.7202 12.8103C96.3342 12.8103 97.9542 12.8103 99.5682 12.8103C100.546 12.8103 101.368 13.1763 101.98 13.9563C102.292 14.3523 102.448 14.8083 102.448 15.3123C102.448 16.9803 102.448 18.6483 102.448 20.3163L106.018 5.82031L89.4342 6.05431C89.6022 6.42631 89.6982 6.84031 89.6982 7.27831C89.6982 8.91031 88.3602 10.2363 86.7222 10.2303C85.0902 10.2303 83.7762 8.89831 83.7822 7.24831C83.7822 6.85231 83.8662 6.47431 84.0102 6.12631L7.66623 7.19431L2.78223 43.6923L82.8882 41.8923C82.8342 41.7423 82.7982 41.5863 82.7862 41.4243C82.7742 41.2923 82.7742 41.1603 82.7742 41.0223C82.7742 36.9183 82.7742 32.8203 82.7742 28.7163V16.1463C82.7742 16.0863 82.7742 16.0203 82.7742 15.9603C82.7622 15.7923 82.6902 15.6603 82.5042 15.6603C82.3062 15.6603 82.2222 15.7863 82.2162 15.9723C82.2162 16.0443 82.2162 16.1163 82.2162 16.1883C82.2162 19.1463 82.2162 22.1043 82.2162 25.0563C82.2162 25.7283 81.8742 26.2143 81.2862 26.3883C80.5182 26.6163 79.7142 26.0823 79.6422 25.2843C79.6302 25.1703 79.6362 25.0563 79.6362 24.9363C79.6362 21.4443 79.6362 17.9583 79.6362 14.4663C79.6362 12.9543 80.4162 11.9403 81.8922 11.5683C82.1922 11.4903 82.5042 11.4543 82.8102 11.4543C85.4382 11.4483 88.0662 11.4543 90.6942 11.4543C91.5642 11.4543 92.3322 11.7363 92.9802 12.3123C93.5862 12.8523 93.9042 13.5303 93.9042 14.3523C93.9042 17.9103 93.9042 21.4743 93.9042 25.0323C93.9042 25.6743 93.6162 26.1303 93.0942 26.3463C92.6142 26.5443 92.0622 26.4303 91.6962 26.0583C91.4262 25.7823 91.3182 25.4523 91.3182 25.0683C91.3182 22.1043 91.3182 19.1343 91.3182 16.1703C91.3182 15.7983 91.2402 15.6603 91.0422 15.6603C90.8382 15.6603 90.7602 15.7983 90.7602 16.1643C90.7602 24.4563 90.7602 32.7483 90.7602 41.0463C90.7602 41.2803 90.7422 41.5023 90.6942 41.7243L97.2162 41.5803L97.4922 40.4703L97.4022 40.8423L97.3962 40.8303ZM18.6702 38.1903H11.4762V11.6763H18.6702V38.1903ZM36.4962 38.1903L31.3662 29.0943H28.4142V38.1903H21.2202V11.8023C21.9462 11.7603 22.5522 11.6823 22.9182 11.6403C25.1802 11.4363 27.8922 11.3163 29.5062 11.3163C37.7082 11.3163 41.9562 14.2683 41.9562 19.9683C41.9562 23.0823 40.5402 25.3023 37.6302 26.8383L44.7822 38.1963H36.4962V38.1903ZM61.7142 28.8963C59.9742 29.8263 57.7122 30.2703 54.8442 30.2703C54.5622 30.2703 53.7102 30.2283 52.8642 30.1923V38.1963H45.6702V11.8023C46.7202 11.7243 47.4882 11.6403 48.0162 11.5983C50.0382 11.4783 52.7862 11.3163 53.7162 11.3163C58.5642 11.3163 61.3122 12.0423 63.4182 13.8603C65.3982 15.6003 66.4062 17.9823 66.4062 20.8923C66.4062 24.2883 64.6302 27.2763 61.7202 28.8963H61.7142ZM80.4942 27.2403C80.8962 27.3123 81.3282 27.2283 81.7722 27.2163C81.7722 27.2163 81.7842 27.2763 81.7842 27.3423C81.7842 31.3203 81.7842 35.2983 81.7842 39.2763C81.7842 40.1043 81.2322 40.7703 80.4642 40.9143C79.6662 41.0643 78.8922 40.6563 78.6162 39.9063C78.5262 39.6663 78.4902 39.3843 78.4902 39.1263C78.4842 34.9443 78.4902 30.7623 78.4902 26.5803C78.4902 26.4723 78.5142 26.3523 78.4782 26.2623C78.4362 26.1723 78.3282 26.0643 78.2502 26.0643C78.1722 26.0643 78.0642 26.1723 78.0162 26.2623C77.9742 26.3403 78.0042 26.4543 78.0042 26.5503C78.0042 30.7743 78.0042 35.0043 78.0042 39.2283C78.0042 40.1283 77.4282 40.8063 76.5642 40.9323C75.6522 41.0643 74.7762 40.3563 74.7162 39.4323C74.7102 39.3183 74.7162 39.2043 74.7162 39.0843C74.7162 31.7343 74.7162 24.3783 74.7162 17.0283C74.7162 16.8303 74.7882 16.5423 74.4582 16.5483C74.1522 16.5543 74.2182 16.8303 74.2182 17.0223C74.2182 19.6443 74.2182 22.2603 74.2182 24.8823C74.2182 25.6983 73.5942 26.2443 72.8382 26.1003C72.3882 26.0163 72.0162 25.6443 71.9442 25.1883C71.9202 25.0203 71.9202 24.8523 71.9202 24.6843C71.9202 21.6183 71.9202 18.5583 71.9202 15.4923C71.9202 14.1363 72.6402 13.2123 73.9662 12.8883C74.2062 12.8283 74.4582 12.7923 74.7042 12.7923C76.0962 12.7863 77.4942 12.7923 78.8862 12.7923C78.9282 12.7923 78.9762 12.7983 79.0722 12.8043C78.7122 13.5663 78.8022 14.3463 78.8022 15.1143C78.8022 18.4263 78.8022 21.7383 78.8022 25.0503C78.8022 26.1603 79.4802 27.0483 80.5242 27.2343L80.4942 27.2403ZM78.2202 11.7183C76.7682 11.7183 75.5922 10.5543 75.5922 9.10231C75.5922 7.65031 76.7502 6.46831 78.2022 6.45631C79.6542 6.44431 80.8482 7.63831 80.8482 9.09031C80.8482 10.5423 79.6722 11.7123 78.2202 11.7183ZM93.4482 9.09031C93.4482 7.64431 94.6242 6.46231 96.0702 6.45631C97.5222 6.45631 98.7222 7.65031 98.7102 9.10231C98.7042 10.5483 97.5222 11.7183 96.0702 11.7183C94.6182 11.7183 93.4482 10.5423 93.4422 9.09031H93.4482Z" fill="white"/>
</svg>
