<svg width="109" height="48" viewBox="0 0 109 48" fill="none" xmlns="http://www.w3.org/2000/svg">
<path d="M53.9092 17.2317C55.0552 17.1537 55.2472 17.1537 55.9372 17.1537C58.5052 17.1537 60.1132 18.4977 60.1132 20.6397C60.1132 22.4757 58.7752 24.1617 57.2812 24.1617H53.9092V17.2317Z" fill="white"/>
<path fill-rule="evenodd" clip-rule="evenodd" d="M97.1032 37.2655C96.6755 37.3437 96.2422 37.3964 95.811 37.4489C95.6131 37.473 95.4154 37.4971 95.2192 37.5235H93.5632C93.5463 37.5193 93.5294 37.5148 93.5125 37.5102C93.4571 37.4953 93.4009 37.4801 93.3412 37.4755C91.0672 37.3135 88.9372 36.6655 86.9932 35.4775C83.1952 33.1615 80.8552 29.8075 80.0332 25.4215C79.9592 25.0257 79.9105 24.6237 79.8619 24.2221L79.8618 24.2212C79.8433 24.0691 79.8249 23.9171 79.8052 23.7655V22.2235C79.81 22.1928 79.8153 22.1625 79.8205 22.1325C79.8348 22.051 79.8488 21.9707 79.8532 21.8875C79.9432 20.5255 80.2252 19.1995 80.6932 17.9215C81.4852 15.7615 82.7212 13.8895 84.3832 12.3115C86.5012 10.3015 88.9972 9.04152 91.8712 8.53152C92.2717 8.45831 92.6784 8.40983 93.0824 8.36166L93.0837 8.36151C93.2421 8.34262 93.4001 8.32379 93.5572 8.30352H95.2672C95.287 8.30748 95.307 8.31173 95.3273 8.31601C95.3991 8.3312 95.473 8.34685 95.5432 8.35152C97.5112 8.49552 99.3712 9.02952 101.117 9.94152C102.581 10.7035 103.853 11.6575 104.939 12.8035L106.907 4.81152L7.22916 6.20352L2.28516 43.1935L97.9912 41.0455L99.0472 36.7675C98.4172 36.9775 97.7692 37.1455 97.1032 37.2655ZM18.5752 37.4095H11.7592V12.2875H18.5752V37.4095ZM44.7232 36.8755L40.3612 37.8355L27.3052 23.6695L27.4192 37.4155H21.0232V12.8275L25.4272 11.8315L38.4472 26.1115L38.3332 12.2875H44.7292V36.8695L44.7232 36.8755ZM61.5712 37.4095L56.7112 28.7935H53.9152V37.4095H47.0992V12.4075C47.6403 12.3793 48.1114 12.3252 48.4544 12.2858C48.5487 12.275 48.6334 12.2653 48.7072 12.2575C50.8492 12.0655 53.4172 11.9515 54.9472 11.9515C62.7172 11.9515 66.7372 14.7475 66.7372 20.1475C66.7372 23.0935 65.3992 25.1995 62.6392 26.6575L69.4192 37.4155H61.5712V37.4095Z" fill="white"/>
<path fill-rule="evenodd" clip-rule="evenodd" d="M82.0792 17.7476C79.8112 22.7576 80.9452 30.3896 87.4792 34.3676C91.4332 36.7736 95.8012 36.7976 99.3892 35.3636L102.341 23.3696C101.969 23.0696 101.729 23.0636 101.339 23.3396C101.27 23.3857 101.173 23.3986 101.086 23.4102L101.075 23.4116C100.763 23.4476 100.445 23.4836 100.133 23.5076C99.8752 23.5316 99.6412 23.5256 99.4552 23.2736C99.2032 22.9376 98.9272 22.6196 98.6272 22.3316C98.3376 22.0461 98.3703 21.7178 98.4028 21.392C98.4175 21.2453 98.4321 21.0991 98.4172 20.9576C98.4172 20.9396 98.4472 20.9096 98.4712 20.8976C98.6524 20.8251 98.6557 20.691 98.6594 20.5418C98.6606 20.4935 98.6618 20.4435 98.6692 20.3936C98.4232 20.4476 98.3692 20.3036 98.3092 20.1236C98.2512 19.9391 98.3553 19.8703 98.4629 19.7994C98.4777 19.7896 98.4927 19.7797 98.5072 19.7696C98.6041 19.6993 98.7007 19.6287 98.7971 19.558L98.798 19.5573L98.7985 19.557C99.0477 19.3745 99.2963 19.1924 99.5512 19.0196C99.7072 18.9176 99.7612 18.7976 99.7552 18.6176L99.7529 18.5884L99.7493 18.5445C99.7356 18.3828 99.7186 18.1826 99.7912 18.1256C99.8332 18.0956 99.8737 18.0641 99.9142 18.0326C99.9547 18.0011 99.9952 17.9696 100.037 17.9396C99.9352 17.8736 99.8692 17.7776 99.8692 17.6036C99.8692 17.5311 99.856 17.4565 99.843 17.3823C99.8345 17.3336 99.8259 17.2851 99.8212 17.2376C99.7972 16.9616 99.9232 16.7696 100.193 16.7456C100.433 16.7249 100.675 16.7299 100.924 16.735C101.037 16.7373 101.151 16.7396 101.267 16.7396C101.285 16.65 101.309 16.5426 101.333 16.4351L101.333 16.4336C101.225 16.3916 101.141 16.3556 101.057 16.3196C101.06 16.3035 101.063 16.288 101.066 16.2728C101.068 16.26 101.071 16.2475 101.074 16.2352C101.084 16.1914 101.093 16.1505 101.093 16.1096C101.093 15.8396 101.195 15.6776 101.495 15.6956C101.831 15.7196 101.987 15.4916 102.119 15.2456C102.311 14.8856 102.629 14.8676 102.971 14.8916C103.127 14.9036 103.277 14.9156 103.457 14.9336C103.448 14.8742 103.439 14.818 103.431 14.7637L103.422 14.7049C103.4 14.5685 103.381 14.4429 103.361 14.3096C103.169 14.3816 103.001 14.4416 102.815 14.5076C102.808 14.489 102.801 14.4707 102.795 14.4526C102.79 14.4386 102.785 14.4248 102.781 14.4111C102.756 14.3394 102.733 14.2719 102.695 14.2136C102.641 14.1356 102.569 14.0456 102.485 14.0216C102.257 13.9436 102.167 13.7276 102.347 13.5656C102.447 13.4769 102.57 13.4105 102.693 13.3441C102.761 13.3072 102.829 13.2703 102.893 13.2296C102.988 13.1664 103.077 13.0955 103.17 13.022L103.171 13.0212C103.219 12.9831 103.268 12.9444 103.319 12.9056C97.9852 8.21958 90.7792 8.86158 86.6692 12.0536C87.6652 12.1676 88.0432 12.2996 88.1932 12.5876H89.0272C89.0123 12.5557 89.0004 12.5201 88.9894 12.487C88.9694 12.4269 88.9523 12.3755 88.9252 12.3716C88.7652 12.3436 88.6052 12.3262 88.4452 12.3089C88.3652 12.3002 88.2852 12.2916 88.2052 12.2816C88.3612 11.9876 88.3132 11.9156 87.9772 11.9096H87.5512L87.621 11.8506C87.6876 11.7943 87.7244 11.7632 87.7612 11.7356C87.8141 11.6964 87.8658 11.6559 87.9172 11.6156C88.0231 11.5325 88.1281 11.4503 88.2412 11.3816C88.5052 11.2196 89.0752 11.3336 89.2492 11.5796C89.4952 11.9216 89.9032 11.9576 90.2092 11.6516C90.3592 11.5016 90.4672 11.4956 90.5932 11.6396C90.3532 12.0476 89.9932 12.2096 89.5132 12.1076C89.5274 12.2176 89.5374 12.3109 89.5469 12.3997C89.5534 12.4609 89.5598 12.5205 89.5672 12.5816H90.1792C90.2512 12.5816 90.3652 12.5636 90.3832 12.5276C90.4485 12.337 90.5978 12.3391 90.7414 12.3412C90.7561 12.3414 90.7707 12.3416 90.7852 12.3416C91.0432 12.3416 91.1152 12.2216 91.0672 11.9936C90.9712 11.9636 90.8872 11.9396 90.7972 11.9156C90.9112 11.5376 91.3732 11.4296 91.9552 11.6396C91.9166 11.7147 91.8415 11.7741 91.7671 11.833C91.6216 11.948 91.4782 12.0614 91.6132 12.2876C91.6613 12.3677 91.7843 12.3997 91.9216 12.4354C91.9898 12.4531 92.0615 12.4717 92.1292 12.4976C92.1252 12.4232 92.1205 12.3583 92.1162 12.2997C92.1078 12.1832 92.1012 12.0914 92.1052 11.9996C92.1052 11.9336 92.1292 11.8316 92.1772 11.8076C92.3692 11.7116 92.5732 11.6276 92.7772 11.5676C93.2992 11.4056 93.7552 11.5976 94.2172 11.8136C94.2404 11.8243 94.2636 11.8348 94.2867 11.8452C94.5739 11.9747 94.8365 12.0931 94.7032 12.5096C94.7944 12.5362 94.8736 12.5604 94.9499 12.5837L94.9981 12.5984C95.0258 12.6069 95.0533 12.6152 95.0812 12.6236C95.0272 12.8936 94.9012 13.0496 94.6132 12.9956C94.4092 12.9596 94.2952 13.0436 94.2472 13.2476C94.2391 13.2879 94.2175 13.3255 94.1933 13.3676L94.193 13.3682C94.1812 13.3886 94.1689 13.4102 94.1572 13.4336C93.7492 13.3376 93.3592 13.2416 92.8972 13.1276C93.1809 12.9694 93.4286 12.8329 93.6878 12.6901L93.9172 12.5636C93.8561 12.5235 93.7999 12.4798 93.7473 12.4389C93.6342 12.351 93.5373 12.2756 93.4432 12.2756C93.1492 12.2816 92.8432 12.3416 92.5672 12.4436C92.4059 12.503 92.2597 12.6104 92.103 12.7255C92.0381 12.7732 91.9714 12.8222 91.9012 12.8696C91.9056 12.8784 91.9156 12.8968 91.9283 12.9201C91.9503 12.9606 91.9803 13.0159 92.0032 13.0616C91.9547 13.0879 91.9071 13.1139 91.86 13.1398L91.7869 13.1799L91.7859 13.1804C91.6548 13.2525 91.525 13.3238 91.3852 13.3976C91.36 13.3002 91.3382 13.2225 91.3153 13.1413L91.3149 13.1397L91.3145 13.1385C91.294 13.0656 91.2726 12.9895 91.2472 12.8936C91.0332 13.0107 90.8252 13.1236 90.6208 13.2345C90.2808 13.419 89.951 13.5979 89.6212 13.7816C89.5792 13.8056 89.5372 13.8836 89.5432 13.9376C89.5612 14.2796 89.8012 14.5256 90.1492 14.5736C90.2229 14.5841 90.2955 14.5958 90.369 14.6076C90.4629 14.6228 90.5582 14.6381 90.6592 14.6516V15.4676C90.7179 15.4256 90.7752 15.3924 90.8262 15.363C90.9209 15.3081 90.9937 15.266 91.0132 15.2036C91.1392 14.8436 91.3792 14.6456 91.7512 14.5916C91.9132 14.5676 91.9732 14.4836 91.9612 14.3156C91.9492 14.1356 91.9552 13.9556 91.9612 13.7756C91.9612 13.5836 92.2552 13.3076 92.4352 13.3376C92.6479 13.3775 92.8573 13.4304 93.0707 13.4844C93.1462 13.5035 93.2224 13.5228 93.2992 13.5416C93.2906 13.639 93.2833 13.7324 93.2755 13.8334C93.267 13.9438 93.2577 14.0634 93.2452 14.2076C93.4063 14.1409 93.5559 14.0806 93.7029 14.0214L93.7039 14.021L93.7044 14.0208C93.8742 13.9524 94.0405 13.8854 94.2172 13.8116C94.2172 13.8769 94.2147 13.9391 94.2124 13.9988C94.2073 14.1257 94.2028 14.2414 94.2232 14.3516C94.2472 14.4716 94.3192 14.6336 94.4152 14.6816C94.7212 14.8316 94.7932 15.0476 94.6972 15.3536C94.6944 15.3554 94.6915 15.3573 94.6885 15.3591L94.6749 15.3673C94.6613 15.3753 94.6462 15.3843 94.6312 15.3956C94.5682 15.4286 94.5052 15.4631 94.4422 15.4975C94.3793 15.532 94.3161 15.5666 94.2532 15.5996C94.288 15.624 94.3219 15.6499 94.3556 15.6757C94.4379 15.7388 94.5195 15.8013 94.6132 15.8396C94.8352 15.9296 94.9012 16.0556 94.7872 16.3076C94.6792 16.2746 94.5712 16.2431 94.4632 16.2116C94.3552 16.1801 94.2472 16.1486 94.1392 16.1156C93.8512 16.0256 93.8392 15.9476 94.0192 15.7076C94.0531 15.6652 94.0511 15.5928 94.0491 15.5222C94.0482 15.4929 94.0474 15.464 94.0492 15.4376C94.0266 15.4451 94.0018 15.4508 93.9766 15.4567C93.9212 15.4694 93.8643 15.4826 93.8272 15.5156C93.6532 15.6776 93.2872 15.6536 93.1132 15.5036C93.0172 15.4196 92.8432 15.4016 92.7052 15.3956C92.6512 15.3956 92.5612 15.5156 92.5552 15.5876C92.5552 15.6476 92.6392 15.7316 92.7052 15.7736C92.7555 15.8071 92.8176 15.8202 92.8894 15.8352C92.9202 15.8417 92.9529 15.8486 92.9872 15.8576L92.9374 15.9142C92.8776 15.9821 92.8282 16.0383 92.7712 16.1096C92.5672 15.8816 92.3992 15.9536 92.2252 16.1396C92.1825 16.1864 92.1404 16.2357 92.0981 16.2854C91.9561 16.452 91.8115 16.6217 91.6312 16.7096C91.1204 16.9593 90.7492 17.3539 90.3754 17.7514L90.3112 17.8196C90.2692 17.8676 90.2152 17.9336 90.2152 17.9876C90.233 18.2673 90.0442 18.3818 89.8479 18.5007L89.8432 18.5036C89.7052 18.5876 89.5732 18.6776 89.4412 18.7676C89.1052 18.9956 88.8472 19.2656 88.9552 19.7276C88.9711 19.7872 88.9659 19.852 88.9606 19.9187C88.9579 19.9527 88.9552 19.9871 88.9552 20.0216C88.5592 19.9376 88.3072 19.7756 88.4212 19.3196C88.2528 19.3196 88.0879 19.3139 87.9258 19.3083C87.5624 19.2957 87.2135 19.2836 86.8732 19.3376C86.5552 19.3856 86.2132 19.5776 85.9912 19.8116C85.846 19.9609 85.7668 20.1761 85.6881 20.3899C85.653 20.4854 85.6179 20.5807 85.5772 20.6696C85.4547 20.9438 85.6044 21.1556 85.7452 21.3546L85.7572 21.3716C85.8472 21.5036 86.3992 21.4736 86.5672 21.3656C86.7053 21.2755 86.8419 21.1854 86.9785 21.0954C87.1149 21.0054 87.2513 20.9155 87.3892 20.8256C87.5635 21.0658 87.4602 21.246 87.357 21.4258C87.3004 21.5245 87.2438 21.6232 87.2332 21.7316L87.293 21.743L87.4151 21.7665L87.4158 21.7666C87.6027 21.8027 87.7852 21.8378 87.9712 21.8696C87.978 21.9482 87.9868 22.0253 87.9954 22.1013C88.0172 22.2919 88.038 22.4754 88.0252 22.6556C88.0012 22.9976 88.1452 23.0756 88.4572 23.1536C88.9432 23.2736 89.3032 23.2016 89.5552 22.7576C89.6872 22.5236 89.8732 22.4336 90.1432 22.5356C90.2056 22.5588 90.2723 22.5708 90.3392 22.5829C90.4975 22.6116 90.6575 22.6405 90.7672 22.8176C90.9592 23.1296 91.5892 23.1056 91.7932 22.7996L91.8422 22.8212C92.1609 22.9615 92.1841 22.9717 92.4472 23.4236C92.5852 23.6636 92.7412 23.7656 93.0292 23.7536C93.5452 23.7296 93.5992 23.7776 93.7732 24.2456C93.8332 24.4016 93.8452 24.5816 93.8392 24.7496C93.8392 24.9236 93.9232 24.9836 94.0672 25.0556C94.5952 25.3136 95.1532 25.3676 95.7292 25.3436C95.8312 25.3436 95.9932 25.3916 96.0352 25.4696C96.2032 25.7936 96.4252 26.0216 96.8032 26.0516C96.8318 26.414 96.6519 26.6438 96.4744 26.8705C96.4286 26.929 96.383 26.9873 96.3412 27.0476C96.2512 27.1736 96.1672 27.3236 96.1432 27.4736C96.0832 27.7976 96.0412 28.1336 96.0412 28.4636C96.0412 28.7876 95.8972 28.9796 95.6572 29.1656C95.4754 29.3054 95.2936 29.2932 95.109 29.2807C95.056 29.2772 95.0027 29.2736 94.9492 29.2736C94.7812 29.2736 94.6852 29.3276 94.5832 29.4656C94.4152 29.6996 94.4812 29.9276 94.5532 30.1436C94.6552 30.4376 94.5952 30.6596 94.3852 30.8876L94.352 30.9242C94.1337 31.1652 93.9045 31.4181 93.7732 31.7036C93.5471 32.1881 93.1277 32.3297 92.6972 32.475C92.648 32.4916 92.5984 32.5084 92.5492 32.5256C92.4742 32.5518 92.4039 32.5874 92.3325 32.6236C92.2896 32.6453 92.2462 32.6673 92.2012 32.6876C92.2519 32.7204 92.3011 32.7532 92.3503 32.786L92.3521 32.7872C92.4013 32.82 92.4505 32.8528 92.5012 32.8856C92.5043 32.8887 92.5075 32.8923 92.5114 32.8971C92.5154 32.902 92.5203 32.9081 92.5267 32.9162C92.5379 32.9304 92.5541 32.9509 92.5792 32.9816C92.5078 33.0755 92.4341 33.1765 92.3477 33.2948L92.3464 33.2966L92.2766 33.3921C92.2453 33.4349 92.2123 33.4799 92.1772 33.5276C92.215 33.5448 92.2526 33.5618 92.2901 33.5786C92.3192 33.5917 92.3481 33.6046 92.3771 33.6176C92.4085 33.6316 92.4398 33.6456 92.4712 33.6596C92.5687 33.7031 92.6662 33.7466 92.7652 33.7916C92.7652 33.8002 92.7667 33.8119 92.7684 33.8251C92.7726 33.8577 92.778 33.8997 92.7652 33.9296C92.5432 34.3976 92.6872 34.7336 93.1132 34.9916C93.1492 35.0156 93.0832 35.2976 93.0772 35.2976C92.9917 35.2926 92.9057 35.2981 92.8199 35.3035C92.5927 35.3179 92.3666 35.3322 92.1532 35.1536C91.7332 34.7996 91.3972 34.3976 91.1332 33.9116C90.9772 33.6296 90.8872 33.3596 90.9592 33.0476C91.0492 32.6576 90.9592 32.3336 90.6892 32.0336C90.6052 31.9436 90.5812 31.7636 90.5872 31.6316C90.5999 31.4412 90.6364 31.2508 90.6758 31.0457C90.6923 30.9599 90.7093 30.8716 90.7252 30.7796C90.4367 30.8014 90.4395 30.6305 90.4426 30.4508C90.4429 30.4324 90.4432 30.4139 90.4432 30.3956V28.6256C90.4432 28.5296 90.4132 28.3976 90.3472 28.3556C90.1312 28.2156 89.9099 28.0863 89.6885 27.9569C89.5779 27.8923 89.4672 27.8276 89.3572 27.7616L89.3389 27.7507C89.2805 27.7162 89.2072 27.6729 89.2072 27.6296C89.1921 27.2726 88.9706 27.0378 88.7545 26.8087C88.7127 26.7644 88.6711 26.7203 88.6312 26.6756C88.2952 26.2976 88.1152 25.9376 88.2112 25.3856C88.2832 24.9656 88.3732 24.6476 88.7632 24.4736C88.9432 24.3896 88.9612 24.2516 88.9372 24.0716L88.9342 24.0497C88.8592 23.4893 88.8576 23.4773 88.2712 23.4596C87.9772 23.4536 87.7372 23.3756 87.5692 23.1176C87.2452 22.6136 86.7832 22.3376 86.1832 22.2956C86.1678 22.2956 86.1524 22.2833 86.1354 22.2697C86.1259 22.2621 86.1159 22.254 86.1052 22.2476L86.1096 22.1809L86.11 22.1737C86.1134 22.1226 86.1172 22.0651 86.1223 21.9917C86.1243 21.9619 86.1266 21.9294 86.1292 21.8936C86.0678 21.9079 86.0114 21.9208 85.9579 21.933C85.8544 21.9567 85.7621 21.9778 85.6672 22.0016C85.6532 22.0056 85.6385 22.0116 85.6238 22.0176C85.5945 22.0296 85.5652 22.0416 85.5412 22.0376C85.4658 22.0207 85.3892 22.0057 85.3125 21.9907C84.8159 21.8933 84.3167 21.7953 84.1192 21.1976C84.0892 21.1136 84.0712 20.9876 84.1192 20.9216C84.2392 20.7536 84.1792 20.6336 84.0772 20.4896L84.0422 20.4419C83.7054 19.984 83.369 19.5265 83.3632 18.9176C83.3632 18.8977 83.3467 18.8778 83.3274 18.8545C83.3234 18.8497 83.3193 18.8447 83.3152 18.8396C83.2703 18.843 83.2234 18.8485 83.1791 18.8536C83.1464 18.8574 83.1152 18.861 83.0872 18.8636C83.0392 19.3916 83.2492 19.8056 83.5252 20.2016C83.5852 20.2856 83.6078 20.3962 83.6305 20.5069C83.6418 20.5622 83.6532 20.6176 83.6692 20.6696C83.6392 20.6936 83.6032 20.7176 83.5732 20.7356C83.5257 20.7166 83.4722 20.7018 83.4188 20.687C83.3034 20.6552 83.1885 20.6234 83.1352 20.5496L83.1003 20.4981C82.8223 20.0881 82.5338 19.6626 82.6432 19.1156C82.6612 19.0316 82.6672 18.9356 82.6432 18.8636C82.6132 18.7676 82.5532 18.6356 82.4812 18.6176C82.1272 18.5156 82.0372 18.2816 82.0912 17.9516C82.0948 17.9223 82.094 17.8907 82.0928 17.8446C82.0921 17.8152 82.0912 17.7799 82.0912 17.7356L82.0792 17.7476ZM100.589 13.5836C100.655 13.3544 100.838 13.337 101.031 13.3187C101.066 13.3154 101.101 13.3121 101.135 13.3076C101.243 13.7996 101.369 14.2796 101.897 14.4956C101.689 14.8706 101.379 14.8611 101.065 14.8515C100.962 14.8484 100.858 14.8452 100.757 14.8556C100.758 14.8309 100.759 14.8062 100.76 14.7817C100.766 14.5445 100.772 14.3276 101.201 14.3276C101.138 14.2591 101.089 14.201 101.046 14.1503C100.991 14.0856 100.946 14.0326 100.895 13.9856C100.86 13.9517 100.813 13.9249 100.767 13.8982C100.65 13.8304 100.533 13.7627 100.589 13.5776V13.5836ZM100.427 13.9136C100.529 13.9136 100.691 13.9796 100.721 14.0576C100.751 14.1356 100.685 14.3036 100.607 14.3636C100.563 14.3952 100.52 14.4317 100.477 14.4685C100.314 14.6061 100.146 14.7488 99.8812 14.6636C99.8452 14.2676 100.091 13.9196 100.427 13.9136Z" fill="white"/>
<path d="M103.907 17.0281C103.673 16.9021 103.469 16.7401 103.487 16.3741V16.3801C103.655 16.3561 103.853 16.3921 104.045 16.4641L103.907 17.0281Z" fill="white"/>
<path d="M103.09 16.8031C103.022 16.7425 102.951 16.6795 102.875 16.6141C102.862 16.6255 102.844 16.6431 102.822 16.6643C102.775 16.7094 102.711 16.7709 102.641 16.8241C102.587 16.8661 102.491 16.9201 102.443 16.8961C102.137 16.7581 101.993 16.9501 101.849 17.1661C101.816 17.2147 101.775 17.2601 101.733 17.3055C101.663 17.3833 101.591 17.4613 101.561 17.5561C101.556 17.569 101.552 17.5819 101.548 17.5943C101.543 17.6107 101.538 17.6264 101.531 17.6401C101.889 17.4761 102.261 17.4556 102.638 17.4349C102.868 17.4223 103.099 17.4095 103.331 17.3641V18.1201C103.427 18.1501 103.523 18.1801 103.613 18.2041L103.817 17.3641C103.685 17.2801 103.559 17.1902 103.433 17.1003L103.439 17.1001C103.321 17.0084 103.21 16.9094 103.09 16.8031Z" fill="white"/>
</svg>
